<svg xmlns="http://www.w3.org/2000/svg" viewBox="0 0 111.3 110.7" enable-background="new 0 0 111.3 110.7"><path fill="#992435" d="M-96.2-166v-9.2h44v9.2h-44"/><path d="M236.9 42.7m0 23.7"/><path fill="#6C7A8E" d="M-96.7-142.1l39.8.4 10.4 8.8h-60.4z"/><path d="M226.6 3.3"/><path fill="#6C7A8E" d="M-106.4-206.4h59.9l-10.4 9.3h-39.3z"/><text transform="translate(-227.618 -44.672)" fill="#992435" font-family="'EightOne'" font-size="122.772">K</text><linearGradient id="a" gradientUnits="userSpaceOnUse" x1="312.894" y1="76.789" x2="312.894" y2="3.288"><stop offset="0" stop-color="#fff"/><stop offset=".052" stop-color="#F5E9EA"/><stop offset=".185" stop-color="#DDB5BB"/><stop offset=".321" stop-color="#C88992"/><stop offset=".457" stop-color="#B86571"/><stop offset=".592" stop-color="#AB4957"/><stop offset=".728" stop-color="#A13545"/><stop offset=".864" stop-color="#9C293A"/><stop offset="1" stop-color="#9A2536"/></linearGradient><path fill="url(#a)" d="M337.3 76.8l-40.3-35.6-13 9.3v26.3h-10.4v-73.5h10.4v35.4l50.8-35.4h17.1l-46.5 32.2 46.7 41.3h-14.8z"/><path d="M236.9 12.6m0 20.8"/><radialGradient id="b" cx="275.756" cy="54.135" r="25.65" gradientTransform="matrix(1 0 0 4 0 -162.404)" gradientUnits="userSpaceOnUse"><stop offset="0" stop-color="#6D7A8E"/><stop offset=".209" stop-color="#707D90"/><stop offset=".373" stop-color="#7A8698"/><stop offset=".522" stop-color="#8B95A5"/><stop offset=".662" stop-color="#A2AAB7"/><stop offset=".796" stop-color="#C0C6CF"/><stop offset=".924" stop-color="#E5E7EB"/><stop offset="1" stop-color="#fff"/></radialGradient><path fill="url(#b)" d="M300.7 48c-.8-3.3-2.3-6.4-4.5-9.3-2.1-2.8-4.7-5.1-7.6-6.8-3-1.7-3.5-1.7-4.6-1.9-.1 1.9 0 2.8 0 5.3 2.3 1.1 4.8 2.7 6.6 4.5l-32.8 24.6c-1.2-2.3-2-4.6-2.4-7.1-.4-2.5-.3-4.9.2-7.3.5-2.4 1.4-4.6 2.8-6.7 1.3-2.1 3-4 5-5.5 2.1-1.6 4.3-2.7 6.7-3.3 2.4-.6 1.6-.4 2.8-.6l.7-.1c.2-1.8 0-3.5 0-5.3-1.9 0-1-.1-4 .6-3.3.8-6.4 2.3-9.3 4.5-2.8 2.1-5.1 4.7-6.8 7.6-1.7 3-2.8 6-3.3 9.2-.5 3.2-.3 6.5.6 9.8.8 3.3 2.3 6.4 4.4 9.2l1.5 2 7.4-5.5 29.5-22.2c1.2 2.3 2 4.7 2.4 7.2.4 2.5.3 4.9-.3 7.2-.5 2.4-1.4 4.6-2.7 6.7-1.3 2.1-3 4-5 5.5-3.5 2.6-7.3 4-11.4 4.2-4.1.2-7.9-.9-11.5-3l-4.5 3.4c2.3 1.5 4.7 2.7 7.3 3.5 2.6.8 5.2 1.2 7.9 1.1 2.7 0 5.3-.5 7.9-1.3 2.6-.8 5.1-2.1 7.3-3.8 2.9-2.2 5.2-4.7 6.9-7.7 1.7-2.9 2.8-6 3.2-9.2.6-2.9.4-6.2-.4-9.5z"/><path fill="#992435" d="M240.9-99c3.4 1.7 6.4 4 9 6.8 2.5 2.8 4.5 6 6 9.5 1.4 3.6 2.1 7.3 2.1 11.4h-6.1c0-3.4-.7-6.5-2-9.5s-3.1-5.6-5.3-7.8-4.8-4-7.8-5.3c-3-1.3-6.2-2-9.5-2h-3.1l-9.2 8.6v16h-6.1v-72.4h6.1v47.9l37.4-36.8 4.3 4.3-27 26.4c4 .2 7.8 1.2 11.2 2.9z"/><circle fill="#3D3356" cx="55.7" cy="55.2" r="52"/><circle fill="#5085B6" stroke="#008EB0" stroke-width=".5" stroke-miterlimit="10" cx="55.7" cy="55" r="49"/><circle fill="#fff" stroke="#FFF4DE" stroke-miterlimit="10" cx="55.7" cy="55.2" r="34.7"/><path d="M246.5-2l-26.2.8c.2-1.6.7-3.2 1.4-4.6.7-1.4 1.7-2.7 2.8-3.7 1.2-1 2.5-1.9 3.9-2.5 1.5-.6 3-1 4.6-1 1.7 0 3.2.2 4.7.8 1.5.5 1 .4 1.7.7l.4.2c.8-.9 1.3-1.9 1.9-2.7-1-.7-.5-.4-2.3-1.1-2-.8-4.2-1.2-6.5-1.1-2.3.1-4.4.6-6.4 1.5s-3.7 2.1-5.1 3.6c-1.4 1.3-2.5 3.1-3.3 5.1-.8 2-1.2 4.2-1.1 6.5v1.6l5.9-.2 23.6-.7c-.2 1.7-.7 3.2-1.4 4.6-.7 1.4-1.7 2.7-2.8 3.7-1.2 1-2.5 1.9-3.9 2.5-1.4.6-3 1-4.7 1-2.8.1-5.3-.6-7.5-2s-3.8-3.4-4.9-5.8l-3.6.1c.6 1.6 1.5 3.2 2.5 4.5 1.1 1.4 2.3 2.5 3.7 3.5 1.4 1 2.9 1.7 4.6 2.3 1.7.5 3.4.8 5.2.7 2.3-.1 4.5-.6 6.4-1.5 2-.9 3.7-2.1 5.1-3.6 1.4-1.5 2.5-3.3 3.3-5.3.8-2 1.2-4.2 1.1-6.5l-.1-1.6"/><path fill="#C898AE" d="M70.2 65.9c1.7.8 3.2 2 4.4 3.3 1.2 1.4 2.2 2.9 2.9 4.7.7 1.8 1.1 3.6 1.1 5.6h-3c0-1.7-.3-3.2-1-4.7-.6-1.4-1.5-2.7-2.6-3.8-1.1-1.1-2.4-2-3.8-2.6-1.5-.6-3-1-4.7-1h-1.5l-4.5 4.2v7.8h-3v-35.5h3v23.5l18.4-18.1 2.1 2.1-13.3 13c2 .2 3.8.7 5.5 1.5z"/><path fill="#5085B6" d="M44.9 50.3c2.2 0 4.2-.6 5.9-1.8 1.7-1.2 2.9-2.8 3.7-4.7h2.9c-.5 1.3-1.1 2.5-1.9 3.6-.8 1.1-1.8 2.1-2.9 2.9-1.1.8-2.3 1.4-3.6 1.9-1.3.5-2.7.7-4.1.7-1.8 0-3.5-.3-5.1-1-1.6-.7-2.9-1.6-4.1-2.8-1.2-1.2-2.1-2.5-2.8-4.1-.7-1.6-1-3.3-1-5.1 0-1.8.3-3.5 1-5.1s1.6-3 2.8-4.1c1.2-1.2 2.5-2.1 4.1-2.8 1.6-.7 3.3-1 5.1-1 1.8 0 3.5.3 5.1 1 1.6.7 3 1.6 4.1 2.8 1.2 1.2 2.1 2.5 2.8 4.1.7 1.6 1 3.3 1 5.1v1.3h-23.4c.2 1.3.6 2.5 1.2 3.6s1.4 2.1 2.3 2.9c.9.8 2 1.4 3.1 1.9 1.2.5 2.5.7 3.8.7zm0-20.7c-1.3 0-2.6.2-3.7.7-1.2.5-2.2 1.1-3.1 1.9-.9.8-1.7 1.8-2.3 2.9-.6 1.1-1 2.3-1.2 3.6h20.8c-.2-1.3-.6-2.5-1.2-3.6s-1.4-2.1-2.3-2.9c-.9-.8-2-1.4-3.2-1.9-1.3-.5-2.5-.7-3.8-.7z"/><circle cx="55.7" cy="55.3" r="48" fill="none"/><text transform="matrix(.641 .767 -.767 .641 16.297 83.138)"><tspan x="0" y="0" fill="#fff" font-family="'AvantGarde-Medium'" font-size="15.674">S</tspan><tspan x="11.9" y="-.4" fill="#fff" font-family="'AvantGarde-Medium'" font-size="15.674" rotate="-15.3">h</tspan><tspan x="25.4" y="-4.7" fill="#fff" font-family="'AvantGarde-Medium'" font-size="15.674" rotate="-32.7">o</tspan><tspan x="37.6" y="-13.4" fill="#fff" font-family="'AvantGarde-Medium'" font-size="15.674" rotate="-50.2">e</tspan><tspan x="46.1" y="-24.7" fill="#fff" font-family="'AvantGarde-Medium'" font-size="15.674" rotate="-65">s</tspan><tspan x="50" y="-34.1" fill="#fff" font-family="'AvantGarde-Medium'" font-size="15.674" rotate="-75.8">.</tspan><tspan x="52" y="-42.3" fill="#fff" font-family="'AvantGarde-Medium'" font-size="15.674" rotate="-90.5">C</tspan><tspan x="51" y="-59.1" fill="#fff" font-family="'AvantGarde-Medium'" font-size="15.674" rotate="-109.5">o</tspan></text><circle fill="#3D3356" cx="12.6" cy="55.2" r="3.5"/><circle fill="#3D3356" cx="54.4" cy="10.8" r="3.5"/><circle fill="#3D3356" cx="24.4" cy="24.8" r="3.5"/><circle fill="#3D3356" cx="70.1" cy="40.9" r="2"/><circle fill="#3D3356" cx="40.7" cy="67.8" r="2"/><circle fill="#3D3356" cx="86.9" cy="24.8" r="3.5"/><circle fill="#3D3356" cx="98.5" cy="55" r="3.5"/></svg>