<?xml version="1.0" encoding="utf-8"?>
<!-- Generator: Adobe Illustrator 17.1.0, SVG Export Plug-In . SVG Version: 6.00 Build 0)  -->
<!DOCTYPE svg PUBLIC "-//W3C//DTD SVG 1.1//EN" "http://www.w3.org/Graphics/SVG/1.1/DTD/svg11.dtd">
<svg version="1.1" id="Layer_1" xmlns="http://www.w3.org/2000/svg" xmlns:xlink="http://www.w3.org/1999/xlink" x="0px" y="0px"
	 viewBox="0 0 111.3 110.7" enable-background="new 0 0 111.3 110.7" xml:space="preserve">
<polyline fill="#992435" points="-96.2,-166 -96.2,-175.2 -52.2,-175.2 -52.2,-166 -96.2,-166 "/>
<path d="M236.9,42.7"/>
<path d="M236.9,66.4"/>
<polygon fill="#6C7A8E" points="-96.7,-142.1 -56.9,-141.7 -46.5,-132.9 -106.9,-132.9 "/>
<path d="M226.6,3.3"/>
<polygon fill="#6C7A8E" points="-106.4,-206.4 -46.5,-206.4 -56.9,-197.1 -96.2,-197.1 "/>
<text transform="matrix(1 0 0 1 -227.6182 -44.6718)" fill="#992435" font-family="'EightOne'" font-size="122.772">K</text>
<linearGradient id="SVGID_1_" gradientUnits="userSpaceOnUse" x1="312.8945" y1="76.7888" x2="312.8945" y2="3.2885">
	<stop  offset="0" style="stop-color:#FFFFFF"/>
	<stop  offset="5.219227e-02" style="stop-color:#F5E9EA"/>
	<stop  offset="0.1854" style="stop-color:#DDB5BB"/>
	<stop  offset="0.321" style="stop-color:#C88992"/>
	<stop  offset="0.4565" style="stop-color:#B86571"/>
	<stop  offset="0.5921" style="stop-color:#AB4957"/>
	<stop  offset="0.7277" style="stop-color:#A13545"/>
	<stop  offset="0.8635" style="stop-color:#9C293A"/>
	<stop  offset="1" style="stop-color:#9A2536"/>
</linearGradient>
<path fill="url(#SVGID_1_)" d="M337.3,76.8L297,41.2l-13,9.3v26.3h-10.4V3.3H284v35.4l50.8-35.4h17.1l-46.5,32.2l46.7,41.3H337.3z"
	/>
<path d="M236.9,12.6"/>
<path d="M236.9,33.4"/>
<radialGradient id="SVGID_2_" cx="275.7559" cy="54.1347" r="25.6504" gradientTransform="matrix(1 0 0 4 0 -162.404)" gradientUnits="userSpaceOnUse">
	<stop  offset="0" style="stop-color:#6D7A8E"/>
	<stop  offset="0.2089" style="stop-color:#707D90"/>
	<stop  offset="0.3732" style="stop-color:#7A8698"/>
	<stop  offset="0.5223" style="stop-color:#8B95A5"/>
	<stop  offset="0.6625" style="stop-color:#A2AAB7"/>
	<stop  offset="0.7963" style="stop-color:#C0C6CF"/>
	<stop  offset="0.9237" style="stop-color:#E5E7EB"/>
	<stop  offset="1" style="stop-color:#FFFFFF"/>
</radialGradient>
<path fill="url(#SVGID_2_)" d="M300.7,48c-0.8-3.3-2.3-6.4-4.5-9.3c-2.1-2.8-4.7-5.1-7.6-6.8c-3-1.7-3.5-1.7-4.6-1.9
	c-0.1,1.9,0,2.8,0,5.3c2.3,1.1,4.8,2.7,6.6,4.5l-32.8,24.6c-1.2-2.3-2-4.6-2.4-7.1c-0.4-2.5-0.3-4.9,0.2-7.3
	c0.5-2.4,1.4-4.6,2.8-6.7c1.3-2.1,3-4,5-5.5c2.1-1.6,4.3-2.7,6.7-3.3c2.4-0.6,1.6-0.4,2.8-0.6c0.2,0,0.5-0.1,0.7-0.1
	c0.2-1.8,0-3.5,0-5.3c-1.9,0-1-0.1-4,0.6c-3.3,0.8-6.4,2.3-9.3,4.5c-2.8,2.1-5.1,4.7-6.8,7.6c-1.7,3-2.8,6-3.3,9.2
	c-0.5,3.2-0.3,6.5,0.6,9.8c0.8,3.3,2.3,6.4,4.4,9.2l1.5,2l7.4-5.5l29.5-22.2c1.2,2.3,2,4.7,2.4,7.2c0.4,2.5,0.3,4.9-0.3,7.2
	c-0.5,2.4-1.4,4.6-2.7,6.7c-1.3,2.1-3,4-5,5.5c-3.5,2.6-7.3,4-11.4,4.2c-4.1,0.2-7.9-0.9-11.5-3l-4.5,3.4c2.3,1.5,4.7,2.7,7.3,3.5
	c2.6,0.8,5.2,1.2,7.9,1.1c2.7,0,5.3-0.5,7.9-1.3c2.6-0.8,5.1-2.1,7.3-3.8c2.9-2.2,5.2-4.7,6.9-7.7c1.7-2.9,2.8-6,3.2-9.2
	C301.7,54.6,301.5,51.3,300.7,48z"/>
<g>
	<path fill="#992435" d="M240.9-99c3.4,1.7,6.4,4,9,6.8c2.5,2.8,4.5,6,6,9.5c1.4,3.6,2.1,7.3,2.1,11.4h-6.1c0-3.4-0.7-6.5-2-9.5
		c-1.3-3-3.1-5.6-5.3-7.8s-4.8-4-7.8-5.3c-3-1.3-6.2-2-9.5-2h-3.1l-9.2,8.6v16h-6.1v-72.4h6.1v47.9l37.4-36.8l4.3,4.3l-27,26.4
		C233.7-101.7,237.5-100.7,240.9-99z"/>
</g>
<circle fill="#3D3356" cx="55.7" cy="55.2" r="52"/>
<circle fill="#5085B6" stroke="#008EB0" stroke-width="0.5" stroke-miterlimit="10" cx="55.7" cy="55" r="49"/>
<circle fill="#FFFFFF" stroke="#FFF4DE" stroke-miterlimit="10" cx="55.7" cy="55.2" r="34.7"/>
<path d="M246.5-2l-26.2,0.8c0.2-1.6,0.7-3.2,1.4-4.6c0.7-1.4,1.7-2.7,2.8-3.7c1.2-1,2.5-1.9,3.9-2.5c1.5-0.6,3-1,4.6-1
	c1.7,0,3.2,0.2,4.7,0.8c1.5,0.5,1,0.4,1.7,0.7c0.1,0.1,0.3,0.1,0.4,0.2c0.8-0.9,1.3-1.9,1.9-2.7c-1-0.7-0.5-0.4-2.3-1.1
	c-2-0.8-4.2-1.2-6.5-1.1c-2.3,0.1-4.4,0.6-6.4,1.5c-2,0.9-3.7,2.1-5.1,3.6C220-9.8,218.9-8,218.1-6c-0.8,2-1.2,4.2-1.1,6.5l0,1.6
	l5.9-0.2l23.6-0.7c-0.2,1.7-0.7,3.2-1.4,4.6c-0.7,1.4-1.7,2.7-2.8,3.7c-1.2,1-2.5,1.9-3.9,2.5c-1.4,0.6-3,1-4.7,1
	c-2.8,0.1-5.3-0.6-7.5-2c-2.2-1.4-3.8-3.4-4.9-5.8l-3.6,0.1c0.6,1.6,1.5,3.2,2.5,4.5c1.1,1.4,2.3,2.5,3.7,3.5c1.4,1,2.9,1.7,4.6,2.3
	c1.7,0.5,3.4,0.8,5.2,0.7c2.3-0.1,4.5-0.6,6.4-1.5c2-0.9,3.7-2.1,5.1-3.6c1.4-1.5,2.5-3.3,3.3-5.3c0.8-2,1.2-4.2,1.1-6.5
	c0-0.5-0.1-1.1-0.1-1.6"/>
<g>
	<path fill="#C898AE" d="M70.2,65.9c1.7,0.8,3.2,2,4.4,3.3c1.2,1.4,2.2,2.9,2.9,4.7c0.7,1.8,1.1,3.6,1.1,5.6h-3c0-1.7-0.3-3.2-1-4.7
		C74,73.4,73.1,72.1,72,71c-1.1-1.1-2.4-2-3.8-2.6c-1.5-0.6-3-1-4.7-1H62l-4.5,4.2v7.8h-3V43.9h3v23.5l18.4-18.1l2.1,2.1l-13.3,13
		C66.7,64.6,68.5,65.1,70.2,65.9z"/>
</g>
<g>
	<path fill="#5085B6" d="M44.9,50.3c2.2,0,4.2-0.6,5.9-1.8c1.7-1.2,2.9-2.8,3.7-4.7h2.9c-0.5,1.3-1.1,2.5-1.9,3.6
		c-0.8,1.1-1.8,2.1-2.9,2.9c-1.1,0.8-2.3,1.4-3.6,1.9c-1.3,0.5-2.7,0.7-4.1,0.7c-1.8,0-3.5-0.3-5.1-1c-1.6-0.7-2.9-1.6-4.1-2.8
		c-1.2-1.2-2.1-2.5-2.8-4.1c-0.7-1.6-1-3.3-1-5.1c0-1.8,0.3-3.5,1-5.1s1.6-3,2.8-4.1c1.2-1.2,2.5-2.1,4.1-2.8c1.6-0.7,3.3-1,5.1-1
		c1.8,0,3.5,0.3,5.1,1c1.6,0.7,3,1.6,4.1,2.8c1.2,1.2,2.1,2.5,2.8,4.1c0.7,1.6,1,3.3,1,5.1v1.3h-4.7H34.5c0.2,1.3,0.6,2.5,1.2,3.6
		c0.6,1.1,1.4,2.1,2.3,2.9c0.9,0.8,2,1.4,3.1,1.9C42.3,50.1,43.6,50.3,44.9,50.3z M44.9,29.6c-1.3,0-2.6,0.2-3.7,0.7
		c-1.2,0.5-2.2,1.1-3.1,1.9c-0.9,0.8-1.7,1.8-2.3,2.9c-0.6,1.1-1,2.3-1.2,3.6h20.8c-0.2-1.3-0.6-2.5-1.2-3.6
		c-0.6-1.1-1.4-2.1-2.3-2.9c-0.9-0.8-2-1.4-3.2-1.9C47.4,29.8,46.2,29.6,44.9,29.6z"/>
</g>
<circle fill="none" cx="55.7" cy="55.3" r="48"/>
<text transform="matrix(0.6414 0.7672 -0.7672 0.6414 16.2965 83.1376)"><tspan x="0" y="0" fill="#FFFFFF" font-family="'AvantGarde-Medium'" font-size="15.6738">S</tspan><tspan x="11.9" y="-0.4" fill="#FFFFFF" font-family="'AvantGarde-Medium'" font-size="15.6738" rotate="-15.3">h</tspan><tspan x="25.4" y="-4.7" fill="#FFFFFF" font-family="'AvantGarde-Medium'" font-size="15.6738" rotate="-32.7">o</tspan><tspan x="37.6" y="-13.4" fill="#FFFFFF" font-family="'AvantGarde-Medium'" font-size="15.6738" rotate="-50.2">e</tspan><tspan x="46.1" y="-24.7" fill="#FFFFFF" font-family="'AvantGarde-Medium'" font-size="15.6738" rotate="-65">s</tspan><tspan x="50" y="-34.1" fill="#FFFFFF" font-family="'AvantGarde-Medium'" font-size="15.6738" rotate="-75.8">.</tspan><tspan x="52" y="-42.3" fill="#FFFFFF" font-family="'AvantGarde-Medium'" font-size="15.6738" rotate="-90.5">C</tspan><tspan x="51" y="-59.1" fill="#FFFFFF" font-family="'AvantGarde-Medium'" font-size="15.6738" rotate="-109.5">o</tspan></text>
<circle fill="#3D3356" cx="12.6" cy="55.2" r="3.5"/>
<circle fill="#3D3356" cx="54.4" cy="10.8" r="3.5"/>
<circle fill="#3D3356" cx="24.4" cy="24.8" r="3.5"/>
<circle fill="#3D3356" cx="70.1" cy="40.9" r="2"/>
<circle fill="#3D3356" cx="40.7" cy="67.8" r="2"/>
<circle fill="#3D3356" cx="86.9" cy="24.8" r="3.5"/>
<circle fill="#3D3356" cx="98.5" cy="55" r="3.5"/>
</svg>
